<svg width="24" height="24" viewBox="0 0 24 24" fill="none" xmlns="http://www.w3.org/2000/svg">
<path d="M9.87671 9.87891C9.58196 10.1536 9.34555 10.4848 9.18158 10.8528C9.01762 11.2208 8.92945 11.618 8.92234 12.0208C8.91523 12.4236 8.98933 12.8237 9.14022 13.1973C9.2911 13.5708 9.51568 13.9102 9.80055 14.1951C10.0854 14.4799 10.4248 14.7045 10.7983 14.8554C11.1719 15.0063 11.572 15.0804 11.9748 15.0733C12.3776 15.0662 12.7749 14.978 13.1429 14.814C13.5109 14.6501 13.8421 14.4137 14.1167 14.1189" stroke="#697586" stroke-linecap="round" stroke-linejoin="round"/>
<path d="M13 6.06612C13.3365 6.02274 13.6751 6.00066 14.0142 6C19.6043 6 22 11.7851 22 11.7851C21.643 12.5761 21.1952 13.3198 20.6664 14" stroke="#697586" stroke-linecap="round" stroke-linejoin="round"/>
<path d="M6.61 6.60938C4.62125 7.964 3.02987 9.82463 2 11.9994C2 11.9994 5 18.9994 12 18.9994C13.9159 19.0045 15.7908 18.4445 17.39 17.3894" stroke="#697586" stroke-linecap="round" stroke-linejoin="round"/>
<path d="M6 4L22 20" stroke="#697586" stroke-linecap="round" stroke-linejoin="round"/>
</svg>
