<svg width="24" height="24" viewBox="0 0 24 24" fill="none" xmlns="http://www.w3.org/2000/svg">
<path d="M12.2549 17C11.4984 17 10.7329 16.78 10.1366 16.35L4.7785 12.42C3.78164 11.69 3.1853 10.46 3.1853 9.12C3.1853 7.78 3.78164 6.55 4.7785 5.82L10.1455 1.9C11.3382 1.03 13.1984 1.03 14.3822 1.91L19.7136 5.84C20.7015 6.57 21.2979 7.8 21.2979 9.13C21.2979 10.46 20.7015 11.69 19.7136 12.42L14.3822 16.35C13.7858 16.79 13.0204 17 12.2549 17ZM12.2549 2.75C11.7476 2.75 11.2403 2.88 10.8754 3.16L5.51724 7.08C4.8942 7.54 4.52928 8.28 4.52928 9.12C4.52928 9.96 4.8853 10.7 5.51724 11.16L10.8754 15.09C11.6141 15.63 12.9136 15.63 13.6523 15.09L18.9837 11.16C19.6068 10.7 19.9628 9.96 19.9628 9.12C19.9628 8.28 19.6068 7.54 18.9837 7.08L13.6523 3.15C13.2785 2.89 12.7712 2.75 12.2549 2.75Z" fill="black"/>
<path d="M12.246 22.75C11.8544 22.75 11.4539 22.69 11.1335 22.57L8.2942 21.51C6.95022 21.01 5.89106 19.36 5.89996 17.77L5.90886 13.08C5.90886 12.67 6.21148 12.33 6.5764 12.33C6.94132 12.33 7.24394 12.67 7.24394 13.08L7.23504 17.77C7.23504 18.71 7.92928 19.79 8.72142 20.09L11.5607 21.15C11.9167 21.28 12.5754 21.28 12.9314 21.15L15.7706 20.09C16.5628 19.79 17.257 18.71 17.257 17.78V13.14C17.257 12.73 17.5596 12.39 17.9246 12.39C18.2895 12.39 18.5921 12.73 18.5921 13.14V17.78C18.5921 19.37 17.5418 21.01 16.1979 21.52L13.3586 22.58C13.0382 22.69 12.6377 22.75 12.246 22.75Z" fill="black"/>
<path d="M20.6126 15.75C20.2477 15.75 19.9451 15.41 19.9451 15V9C19.9451 8.59 20.2477 8.25 20.6126 8.25C20.9775 8.25 21.2801 8.59 21.2801 9V15C21.2801 15.41 20.9775 15.75 20.6126 15.75Z" fill="black"/>
</svg>
