<svg width="24" height="24" viewBox="0 0 24 24" fill="none" xmlns="http://www.w3.org/2000/svg">
<path d="M11.5706 21.65C11.2947 21.65 11.0277 21.61 10.8052 21.52C7.40518 20.21 2.00256 15.56 2.00256 8.69001C2.00256 5.19001 4.52141 2.35001 7.61879 2.35001C9.12298 2.35001 10.5293 3.01001 11.5706 4.19001C12.612 3.01001 14.0183 2.35001 15.5225 2.35001C18.6198 2.35001 21.1387 5.20001 21.1387 8.69001C21.1387 15.57 15.7361 20.21 12.3361 21.52C12.1136 21.61 11.8465 21.65 11.5706 21.65ZM7.61879 3.85001C5.26015 3.85001 3.33764 6.02001 3.33764 8.69001C3.33764 15.52 9.18529 19.32 11.2413 20.11C11.4015 20.17 11.7486 20.17 11.9088 20.11C13.956 19.32 19.8125 15.53 19.8125 8.69001C19.8125 6.02001 17.89 3.85001 15.5314 3.85001C14.1785 3.85001 12.9235 4.56001 12.1136 5.79001C11.8643 6.17001 11.2947 6.17001 11.0455 5.79001C10.2177 4.55001 8.97167 3.85001 7.61879 3.85001Z" fill="black"/>
</svg>
