<svg width="24" height="24" viewBox="0 0 24 24" fill="none" xmlns="http://www.w3.org/2000/svg">
<path d="M16.3403 21.04H7.43982C4.61836 21.04 2.32202 18.46 2.32202 15.29V5.71001C2.32202 4.41001 2.85605 3.96001 3.17647 3.81001C3.49689 3.66001 4.15553 3.55001 4.97438 4.47001L7.27961 7.06001C7.36862 7.16001 7.51103 7.16001 7.59113 7.06001L10.7864 3.47001C11.3739 2.81001 12.4063 2.81001 12.9848 3.47001L16.1801 7.06001C16.2691 7.16001 16.4115 7.16001 16.4917 7.06001L18.7969 4.47001C19.6157 3.55001 20.2744 3.67001 20.5948 3.81001C20.9152 3.96001 21.4492 4.40001 21.4492 5.71001V15.3C21.4581 18.73 19.4021 21.04 16.3403 21.04ZM3.7105 5.24001C3.6838 5.32001 3.6571 5.47001 3.6571 5.71001V15.3C3.6571 17.64 5.3571 19.55 7.43982 19.55H16.3403C18.6367 19.55 20.1231 17.88 20.1231 15.3V5.71001C20.1231 5.47001 20.0964 5.33001 20.0697 5.25001C19.9985 5.29001 19.8917 5.37001 19.7403 5.54001L17.4351 8.13001C16.8477 8.79001 15.8152 8.79001 15.2367 8.13001L12.0414 4.54001C11.9524 4.44001 11.81 4.44001 11.7299 4.54001L8.54349 8.12001C7.95605 8.78001 6.92359 8.78001 6.34506 8.12001L4.03982 5.53001C3.88851 5.36001 3.77281 5.28001 3.7105 5.24001Z" fill="black"/>
</svg>
