<svg width="24" height="24" viewBox="0 0 24 24" fill="none" xmlns="http://www.w3.org/2000/svg">
<path d="M20.9686 22.75H3.16754C2.80262 22.75 2.5 22.41 2.5 22C2.5 21.59 2.80262 21.25 3.16754 21.25H20.9686C21.3335 21.25 21.6361 21.59 21.6361 22C21.6361 22.41 21.3335 22.75 20.9686 22.75Z" fill="black"/>
<path d="M4.68078 22H3.3457L3.39021 9.96996C3.39021 9.11996 3.73733 8.32998 4.33366 7.80998L10.564 2.35997C11.4452 1.58997 12.6824 1.58997 13.5724 2.35997L19.8028 7.79997C20.3902 8.31997 20.7462 9.12996 20.7462 9.96996V22H19.4111V9.97997C19.4111 9.59997 19.2509 9.22998 18.9839 8.98998L12.7536 3.54997C12.353 3.19997 11.7923 3.19997 11.3829 3.54997L5.15251 8.99999C4.88549 9.22999 4.72528 9.59997 4.72528 9.97997L4.68078 22Z" fill="black"/>
<path d="M14.2932 22.75H9.84295C9.47803 22.75 9.17542 22.41 9.17542 22V18.5C9.17542 17.26 10.0744 16.25 11.178 16.25H12.9581C14.0618 16.25 14.9608 17.26 14.9608 18.5V22C14.9608 22.41 14.6581 22.75 14.2932 22.75ZM10.5105 21.25H13.6257V18.5C13.6257 18.09 13.3231 17.75 12.9581 17.75H11.178C10.8131 17.75 10.5105 18.09 10.5105 18.5V21.25Z" fill="black"/>
<path d="M16.0733 14.5H14.2932C13.4387 14.5 12.7356 13.71 12.7356 12.75V11.25C12.7356 10.29 13.4387 9.5 14.2932 9.5H16.0733C16.9277 9.5 17.6309 10.29 17.6309 11.25V12.75C17.6309 13.71 16.9277 14.5 16.0733 14.5ZM14.2932 11C14.1686 11 14.0707 11.11 14.0707 11.25V12.75C14.0707 12.89 14.1686 13 14.2932 13H16.0733C16.1979 13 16.2958 12.89 16.2958 12.75V11.25C16.2958 11.11 16.1979 11 16.0733 11H14.2932Z" fill="black"/>
<path d="M9.84295 14.5H8.06284C7.20839 14.5 6.50525 13.71 6.50525 12.75V11.25C6.50525 10.29 7.20839 9.5 8.06284 9.5H9.84295C10.6974 9.5 11.4005 10.29 11.4005 11.25V12.75C11.4005 13.71 10.6974 14.5 9.84295 14.5ZM8.06284 11C7.93823 11 7.84033 11.11 7.84033 11.25V12.75C7.84033 12.89 7.93823 13 8.06284 13H9.84295C9.96755 13 10.0655 12.89 10.0655 12.75V11.25C10.0655 11.11 9.96755 11 9.84295 11H8.06284Z" fill="black"/>
<path d="M18.2985 7.75C17.9335 7.75 17.6309 7.42001 17.6309 7.01001L17.6131 4.75H14.3644C13.9995 4.75 13.6969 4.41 13.6969 4C13.6969 3.59 13.9995 3.25 14.3644 3.25H18.2807C18.6456 3.25 18.9482 3.57999 18.9482 3.98999L18.9749 6.98999C18.966 7.40999 18.6723 7.75 18.2985 7.75C18.3074 7.75 18.2985 7.75 18.2985 7.75Z" fill="black"/>
</svg>
