<svg width="24" height="24" viewBox="0 0 24 24" fill="none" xmlns="http://www.w3.org/2000/svg">
<path d="M11.8541 11.62C11.8274 11.62 11.8096 11.62 11.7829 11.62C11.7384 11.61 11.6761 11.61 11.6227 11.62C9.04156 11.53 7.09235 9.25 7.09235 6.44C7.09235 3.58 9.16617 1.25 11.7117 1.25C14.2573 1.25 16.3311 3.58 16.3311 6.44C16.3222 9.25 14.3641 11.53 11.8808 11.62C11.8719 11.62 11.863 11.62 11.8541 11.62ZM11.7117 2.75C9.90491 2.75 8.42743 4.41 8.42743 6.44C8.42743 8.44 9.81591 10.05 11.5871 10.12C11.6316 10.11 11.7562 10.11 11.8719 10.12C13.6164 10.03 14.9871 8.42 14.996 6.44C14.996 4.41 13.5185 2.75 11.7117 2.75Z" fill="black"/>
<path d="M11.863 22.55C10.1185 22.55 8.3651 22.05 7.03892 21.05C5.80175 20.13 5.12531 18.87 5.12531 17.5C5.12531 16.13 5.80175 14.86 7.03892 13.93C9.70907 11.94 14.0347 11.94 16.6871 13.93C17.9154 14.85 18.6007 16.11 18.6007 17.48C18.6007 18.85 17.9243 20.12 16.6871 21.05C15.352 22.05 13.6075 22.55 11.863 22.55ZM7.77766 15.19C6.92321 15.83 6.46038 16.65 6.46038 17.51C6.46038 18.36 6.93211 19.18 7.77766 19.81C9.99389 21.48 13.7321 21.48 15.9483 19.81C16.8028 19.17 17.2656 18.35 17.2656 17.49C17.2656 16.64 16.7939 15.82 15.9483 15.19C13.7321 13.53 9.99389 13.53 7.77766 15.19Z" fill="black"/>
</svg>
